<svg xmlns="http://www.w3.org/2000/svg" viewBox="0 0 48 48" width="48" height="48">
  <path d="M8.8 14.4c0.8-0.6 1.8-0.4 2.4 0.2l14.4 17.6c0.8 1 0.2 2.6-1 2.8l-8.8 1.6c-0.8 0.2-1.6-0.2-2-1L8.2 16.8c-0.4-1 0-2 0.6-2.4z" fill="#00D6B9"/>
  <path d="M17.6 34.4c-0.4-0.8 0-1.8 0.8-2.2l18-8.8c1-0.4 2.2 0.2 2.2 1.4l0.8 10c0 0.8-0.4 1.6-1.2 1.8l-18.8 0.6c-1 0-1.8-0.8-1.8-1.8v-1z" fill="#3370FF"/>
  <path d="M25.6 22.8l-4 4.8c-0.6 0.8-0.2 2 0.8 2.2l5.2 0.8c0.8 0.2 1.6-0.4 1.6-1.2l-0.8-5.6c-0.2-1-1.4-1.6-2.2-1h-0.6z" fill="#1F3B7A"/>
</svg>
